<svg xmlns="http://www.w3.org/2000/svg" viewBox="0 0 139.64 64.25">
  <g id="Capa_2" data-name="Capa 2">
    <g id="logoLayer">
      <path id="outline" d="M69.7,64.24H33.49c-11.63,0-21.14-4.5-27.77-14.06C-6,33.23,1.05,10.49,20.31,2.43A28.81,28.81,0,0,1,31.46.07c25.65,0,51.29-.19,76.93.07,18.21.19,32.69,16.64,31.14,34.72C138.18,50.54,125,63.57,109.16,64.05c-13.14.39-26.3.08-39.46.08Z" fill="#fff"/>
      <path id="background" d="M69.89,60.72c-13.16,0-26.34.52-39.46-.12-20.31-1-33.83-23.36-23.4-42C12.78,8.36,21.82,3.47,33.28,3.37c24.31-.22,48.63-.14,73,0,14.56.06,26,8.69,29.25,22.83,2.42,10.38-.78,19.59-8.65,26.91-5.94,5.52-13.08,7.91-21.21,7.81-11.91-.15-23.82,0-35.73,0Z" fill="#fff"/>
      <path id="letter2" d="M71.65,33.91a33.26,33.26,0,0,1-3.46,0,1.52,1.52,0,0,1-1.44-1.71,1.47,1.47,0,0,1,1.58-1.55q3.47,0,6.93,0a1.52,1.52,0,0,1,1.6,1.56,1.59,1.59,0,0,1-1.5,1.69C74.14,34,72.89,33.91,71.65,33.91Z" fill="#fff"/>
      <path id="letter1" d="M56.72,32.06c0-3.41,0-6.82,0-10.23.06-3.15,1.5-4.58,4.61-4.6,6.23,0,12.47,0,18.71,0,1.28,0,2.58.2,2.62,1.63,0,1.64-1.37,1.75-2.71,1.75-5.91,0-11.81,0-17.72,0-1.61,0-2.17.41-2.15,2.08.09,6.32.08,12.64,0,19,0,1.64.55,2.13,2.17,2.1,5.82-.09,11.65,0,17.47,0,1.26,0,2.75-.14,2.81,1.63.06,2-1.61,1.76-2.9,1.77q-9,0-18,0c-3.63,0-4.93-1.36-5-5C56.7,38.71,56.72,35.38,56.72,32.06Z" fill="#fff"/>
    </g>
  </g>
</svg>
